<?xml version="1.0" encoding="utf-8"?>
<!-- Generator: Adobe Illustrator 19.0.0, SVG Export Plug-In . SVG Version: 6.00 Build 0)  -->
<svg version="1.1" id="Layer_1" xmlns="http://www.w3.org/2000/svg" xmlns:xlink="http://www.w3.org/1999/xlink" x="0px" y="0px"
	 viewBox="0 0 1400 980" style="enable-background:new 0 0 1400 980;" xml:space="preserve">
<style type="text/css">
	.st0{fill:#7C5D3A;}
	.st1{fill:#392D16;}
	.st2{fill:#7CAD41;}
</style>
<g id="XMLID_1188_">
	<path id="XMLID_1134_" class="st0" d="M101.7,404.1c0,0,35.3-31.4,82.7-36.1c47.3-4.7,61.8-1.8,91.9,4.1c44,8.7,73.4,32,73.4,32
		H101.7z"/>
	<path id="XMLID_1163_" class="st1" d="M211.2,377.7c0,0,10.6-72-6.1-108.4l4.7-2c0,0,24.6,28.2,24.6,110.4
		C234.5,381.6,211.2,381.6,211.2,377.7z"/>
	<path id="XMLID_1236_" class="st2" d="M205.2,269.3c0,0-3.2-34.9,44.5-38.3C249.7,231,238.7,275.9,205.2,269.3z"/>
</g>
<g id="XMLID_1271_">
	<path id="XMLID_1241_" class="st0" d="M412.7,404.1c0,0,35.3-31.4,82.7-36.1c47.3-4.7,61.8-1.8,91.9,4.1c44,8.7,73.4,32,73.4,32
		H412.7z"/>
	<path id="XMLID_1240_" class="st1" d="M522.2,377.7c0,0,8.3-82.7-8.4-119.1l4.7-2c0,0,27,38.9,27,121.1
		C545.5,381.6,522.2,381.6,522.2,377.7z"/>
	<path id="XMLID_1239_" class="st2" d="M513.9,258.5c0,0-3.6-39.2,50-43C563.8,215.5,551.5,265.9,513.9,258.5z"/>
	<path id="XMLID_1238_" class="st2" d="M517.3,258.4c0,0-21.6,11-35.9-18.7C481.4,239.7,512.9,235.2,517.3,258.4z"/>
</g>
<g id="XMLID_1305_">
	<path id="XMLID_1245_" class="st0" d="M723.7,404.1c0,0,35.3-31.4,82.7-36.1c47.3-4.7,61.8-1.8,91.9,4.1c44,8.7,73.4,32,73.4,32
		H723.7z"/>
	<g id="XMLID_1237_">
		<path id="XMLID_1244_" class="st1" d="M835.1,377.7c0,0-0.5-112.9-17.2-149.3l4.7-2c0,0,35.8,69.1,35.8,151.3
			C858.4,381.6,835.1,381.6,835.1,377.7z"/>
		<path id="XMLID_1250_" class="st1" d="M838.7,292.2c0,0,28.4-22.3,35.8-39.6l2.2,1c0,0-2.9,19.2-31.6,45.2
			C843.6,300.1,837.3,293.5,838.7,292.2z"/>
		<path id="XMLID_1243_" class="st2" d="M818,229.1c0,0-3.6-39.2,50-43C867.9,186.1,855.6,236.5,818,229.1z"/>
		<path id="XMLID_1242_" class="st2" d="M821.4,229c0,0-21.6,11-35.9-18.7C785.5,210.3,817,205.8,821.4,229z"/>
		<path id="XMLID_1251_" class="st2" d="M874.4,252.8c0,0,11-19,39-1.7C913.4,251.1,890.5,270,874.4,252.8z"/>
		<path id="XMLID_1254_" class="st2" d="M876.1,254c0,0-10.7-2.6-6.3-18.6C869.8,235.3,882.1,243.8,876.1,254z"/>
		<path id="XMLID_1253_" class="st1" d="M834.9,280.1c0,0-23.4-11.3-31.3-22.4l-1.4,1c0,0,5,13.1,29.3,27
			C832.7,286.4,836.1,280.8,834.9,280.1z"/>
		<path id="XMLID_1252_" class="st2" d="M803.8,257.7c0,0-14.2-6.9-24,14.8C779.9,272.5,801.2,274.5,803.8,257.7z"/>
	</g>
</g>
<g id="XMLID_1304_">
	<path id="XMLID_1249_" class="st0" d="M1034.7,404.1c0,0,35.3-31.4,82.7-36.1c47.3-4.7,61.8-1.8,91.9,4.1c44,8.7,73.4,32,73.4,32
		H1034.7z"/>
	<g id="XMLID_1255_">
		<path id="XMLID_1263_" class="st1" d="M1147,377.5c0,0-0.6-120-18.3-158.7l5-2.1c0,0,38,73.4,38,160.8
			C1171.7,381.7,1147,381.7,1147,377.5z"/>
		<path id="XMLID_1246_" class="st1" d="M1150.5,334.4c0,0-13-16.9-29-20.2c-1-0.2-2,0.2-2.6,1l0,0c0,0,7.6,0.9,16.4,9.5
			c8.8,8.6,11.4,18.5,11.4,18.5L1150.5,334.4z"/>
		<path id="XMLID_1262_" class="st1" d="M1150.7,286.7c0,0,30.1-23.7,38-42.1l2.3,1.1c0,0-3.1,20.4-33.6,48
			C1156,295,1149.3,288,1150.7,286.7z"/>
		<path id="XMLID_1261_" class="st2" d="M1128.7,219.6c0,0-3.8-41.7,53.1-45.7C1181.8,174,1168.7,227.5,1128.7,219.6z"/>
		<path id="XMLID_1260_" class="st2" d="M1132.4,219.5c0,0-22.9,11.7-38.2-19.9C1094.2,199.6,1127.8,194.9,1132.4,219.5z"/>
		<path id="XMLID_1259_" class="st2" d="M1188.7,244.8c0,0,11.6-20.2,41.4-1.8C1230.1,243,1205.8,263.1,1188.7,244.8z"/>
		<path id="XMLID_1264_" class="st2" d="M1174.9,274.4c0,0,13.9-12.7,32.4,8.7C1207.3,283.1,1183.6,292.6,1174.9,274.4z"/>
		<path id="XMLID_1258_" class="st2" d="M1190.5,246.1c0,0-11.4-2.8-6.7-19.8C1183.8,226.3,1196.9,235.2,1190.5,246.1z"/>
		<path id="XMLID_1257_" class="st1" d="M1146.8,273.8c0,0-24.9-12-33.3-23.8l-1.5,1.1c0,0,5.3,13.9,31.1,28.7
			C1144.4,280.5,1148,274.5,1146.8,273.8z"/>
		<path id="XMLID_1256_" class="st2" d="M1113.7,250c0,0-15.1-7.3-25.5,15.7C1088.2,265.8,1110.9,267.9,1113.7,250z"/>
		<path id="XMLID_1266_" class="st2" d="M1113.6,251.7c0,0-10.1-6.1-0.5-20.9C1113.1,230.8,1123,243.3,1113.6,251.7z"/>
	</g>
</g>
<g id="XMLID_1267_">
	<g id="XMLID_1292_">
		<path id="XMLID_1291_" class="st0" d="M101.7,806c0,0,35.3-31.4,82.7-36.1c47.3-4.7,61.8-1.8,91.9,4.1c44,8.7,73.4,32,73.4,32
			H101.7z"/>
		<g id="XMLID_1265_">
			<path id="XMLID_1290_" class="st1" d="M212.4,779.1c0,0,19.1-95.4-6.1-175.1l5.4-2.3c0,0,33.5,66.7,27.6,177.4
				C239.3,783.7,212.4,783.7,212.4,779.1z"/>
		</g>
	</g>
	<path id="XMLID_1289_" class="st1" d="M224,719.6c0,0-14.2-18.3-31.5-21.9c-1.1-0.2-2.2,0.2-2.9,1.1l0,0c0,0,8.6,2.3,18.1,11.7
		c9.5,9.4,12.1,18.8,12.1,18.8L224,719.6z"/>
	<path id="XMLID_1288_" class="st1" d="M227.7,678.5c0,0,32.8-25.8,41.4-45.8l2.5,1.2c0,0-3.4,22.2-36.6,52.3
		C233.4,687.6,226.1,680,227.7,678.5z"/>
	<path id="XMLID_1287_" class="st2" d="M206.8,605.5c0,0-4.1-45.4,57.8-49.7C264.6,555.8,250.4,614.1,206.8,605.5z"/>
	<path id="XMLID_1286_" class="st2" d="M210.8,605.4c0,0-25,12.7-41.5-21.6C169.3,583.7,205.8,578.6,210.8,605.4z"/>
	<path id="XMLID_1285_" class="st2" d="M269,632.9c0,0,12.7-22,45.1-1.9C314.1,631,287.6,652.8,269,632.9z"/>
	<path id="XMLID_1284_" class="st2" d="M254,665.1c0,0,15.1-13.9,35.3,9.5C289.2,674.6,263.5,685,254,665.1z"/>
	<path id="XMLID_1269_" class="st2" d="M192.9,697.8c0,0-6.9,13.3-26.6,2.3C166.3,700.1,181.4,686.5,192.9,697.8z"/>
	<path id="XMLID_1283_" class="st2" d="M270.9,634.3c0,0-12.4-3-7.3-21.6C263.6,612.7,277.9,622.5,270.9,634.3z"/>
	<path id="XMLID_1270_" class="st2" d="M192.6,698.3c0,0-7.2-2.9-2.6-13.6C190,684.7,197.8,691.7,192.6,698.3z"/>
	<path id="XMLID_1282_" class="st1" d="M226.5,664.5c0,0-27.1-13.1-36.3-25.9l-1.6,1.2c0,0,5.8,15.1,33.9,31.2
		C223.8,671.8,227.8,665.3,226.5,664.5z"/>
	<path id="XMLID_1281_" class="st2" d="M190.5,638.6c0,0-16.5-8-27.7,17.1C162.8,655.7,187.4,658,190.5,638.6z"/>
	<path id="XMLID_1280_" class="st2" d="M190.3,640.4c0,0-10.9-6.6-0.5-22.7C189.8,617.7,200.5,631.3,190.3,640.4z"/>
	<path id="XMLID_1268_" class="st2" d="M206.2,658.2c0,0,3.1,11.6-14.4,15.7C191.8,673.9,193.3,657.8,206.2,658.2z"/>
</g>
<path id="XMLID_1302_" class="st0" d="M412.7,806c0,0,35.3-31.4,82.7-36.1c47.3-4.7,61.8-1.8,91.9,4.1c44,8.7,73.4,32,73.4,32H412.7
	z"/>
<path id="XMLID_1320_" class="st0" d="M723.7,806c0,0,35.3-31.4,82.7-36.1c47.3-4.7,61.8-1.8,91.9,4.1c44,8.7,73.4,32,73.4,32H723.7
	z"/>
<g id="XMLID_844_">
	<g id="XMLID_1300_">
		<path id="XMLID_1301_" class="st1" d="M520.6,777.5c0,0,21.2-105.6-6.8-193.8l6-2.6c0,0,37.1,73.8,30.6,196.4
			C550.4,782.6,520.6,782.6,520.6,777.5z"/>
	</g>
	<path id="XMLID_1298_" class="st1" d="M533.4,711.6c0,0-15.7-20.3-34.9-24.3c-1.2-0.3-2.5,0.2-3.2,1.2l0,0c0,0,9.5,2.6,20,13
		c10.6,10.4,13.4,20.8,13.4,20.8L533.4,711.6z"/>
	<path id="XMLID_849_" class="st1" d="M542.6,734c0,0,12.1-22.6,30.4-29.8c1.2-0.4,2.5-0.2,3.3,0.7l0,0c0,0-8.9,4.1-17.6,16.1
		c-8.7,12-9.8,22.8-9.8,22.8L542.6,734z"/>
	<path id="XMLID_1297_" class="st1" d="M537.6,664.6c0,0,42.9-33.7,54.1-59.9l3.3,1.5c0,0-7.9,32.5-51.3,71.9
		C541.6,680,535.5,666.5,537.6,664.6z"/>
	<path id="XMLID_1296_" class="st2" d="M514.5,585.4c0,0-4.6-50.2,64-55C578.4,530.3,562.6,594.9,514.5,585.4z"/>
	<path id="XMLID_1295_" class="st2" d="M518.8,585.2c0,0-27.6,14-46-24C472.9,561.2,513.3,555.5,518.8,585.2z"/>
	<path id="XMLID_1294_" class="st2" d="M591.6,604.9c0,0,16.6-28.7,59-2.5C650.6,602.4,615.9,630.9,591.6,604.9z"/>
	<path id="XMLID_1293_" class="st2" d="M568.5,647c0,0,19.8-18.1,46.1,12.4C614.7,659.4,581,673,568.5,647z"/>
	<path id="XMLID_1279_" class="st2" d="M499.1,687.5c0,0-7.6,14.7-29.4,2.6C469.6,690.1,486.3,675,499.1,687.5z"/>
	<path id="XMLID_1278_" class="st2" d="M594.1,606.7c0,0-16.2-4-9.5-28.2C584.6,578.5,603.3,591.3,594.1,606.7z"/>
	<path id="XMLID_1277_" class="st2" d="M498.7,688c0,0-8-3.2-2.9-15.1C495.8,672.9,504.5,680.8,498.7,688z"/>
	<path id="XMLID_1276_" class="st1" d="M536.2,650.7c0,0-30-14.5-40.1-28.7l-1.8,1.3c0,0,6.4,16.7,37.5,34.5
		C533.3,658.7,537.7,651.5,536.2,650.7z"/>
	<path id="XMLID_1275_" class="st2" d="M496.4,622c0,0-18.2-8.9-30.7,19C465.7,640.9,493,643.5,496.4,622z"/>
	<path id="XMLID_1274_" class="st2" d="M496.2,624c0,0-12.1-7.3-0.6-25.2C495.6,598.8,507.5,613.8,496.2,624z"/>
	<path id="XMLID_1273_" class="st2" d="M513.7,643.6c0,0,3.5,12.8-15.9,17.4C497.8,661,499.5,643.2,513.7,643.6z"/>
	<path id="XMLID_1299_" class="st2" d="M559.4,649.7c0,0-10-1.1-7.9-16C551.4,633.7,563.6,639.8,559.4,649.7z"/>
	<path id="XMLID_848_" class="st2" d="M511.3,694.9c0,0,1.5,9-10.8,11.7C500.5,706.6,499.5,694.5,511.3,694.9z"/>
	<path id="XMLID_847_" class="st2" d="M508.2,638c0,0-7.2-7.3,4-17.8C512.2,620.2,517.9,632.8,508.2,638z"/>
</g>
<g id="XMLID_858_">
	<g id="XMLID_1122_">
		<path id="XMLID_1123_" class="st1" d="M829.7,777.1c0,0,23.4-117-7.5-214.6l6.7-2.9c0,0,41.1,81.7,33.9,217.4
			C862.7,782.7,829.7,782.7,829.7,777.1z"/>
	</g>
	<path id="XMLID_1121_" class="st1" d="M843.9,704.1c0,0-17.3-22.5-38.7-26.9c-1.3-0.3-2.7,0.3-3.5,1.4l0,0c0,0,10.5,2.8,22.2,14.4
		s14.8,23,14.8,23L843.9,704.1z"/>
	<path id="XMLID_1120_" class="st1" d="M854.1,729c0,0,13.4-25.1,33.6-33c1.3-0.5,2.7-0.2,3.7,0.8l0,0c0,0-9.9,4.5-19.5,17.9
		c-9.6,13.3-10.8,25.2-10.8,25.2L854.1,729z"/>
	<path id="XMLID_1119_" class="st1" d="M848.5,652.1c0,0,47.5-37.3,59.9-66.3l3.7,1.7c0,0-8.8,36-56.9,79.6
		C852.9,669.2,846.2,654.2,848.5,652.1z"/>
	<path id="XMLID_1118_" class="st2" d="M822.9,564.3c0,0-5-55.6,70.8-60.9C893.8,503.4,876.3,574.9,822.9,564.3z"/>
	<path id="XMLID_1114_" class="st2" d="M827.8,564.2c0,0-30.6,15.6-50.9-26.5C776.9,537.6,821.6,531.3,827.8,564.2z"/>
	<path id="XMLID_1113_" class="st2" d="M908.3,586c0,0,18.4-31.8,65.3-2.8C973.7,583.2,935.3,614.8,908.3,586z"/>
	<path id="XMLID_1112_" class="st2" d="M882.8,632.6c0,0,21.9-20.1,51.1,13.8C933.9,646.4,896.6,661.4,882.8,632.6z"/>
	<path id="XMLID_1111_" class="st2" d="M805.9,677.4c0,0-8.5,16.3-32.6,2.9C773.3,680.3,791.8,663.6,805.9,677.4z"/>
	<path id="XMLID_1107_" class="st2" d="M911.2,588c0,0-18-4.4-10.6-31.2C900.6,556.8,921.3,570.9,911.2,588z"/>
	<path id="XMLID_1104_" class="st2" d="M805.5,678c0,0-8.9-3.5-3.2-16.7C802.3,661.3,811.9,670,805.5,678z"/>
	<path id="XMLID_1103_" class="st1" d="M847,636.6c0,0-33.2-16.1-44.4-31.8l-2,1.5c0,0,7.1,18.5,41.5,38.3
		C843.8,645.6,848.7,637.6,847,636.6z"/>
	<path id="XMLID_1102_" class="st2" d="M802.9,604.9c0,0-20.2-9.8-34,21C768.9,625.9,799.1,628.7,802.9,604.9z"/>
	<path id="XMLID_1101_" class="st2" d="M802.7,607.1c0,0-13.4-8.1-0.6-27.9C802.1,579.2,815.2,595.9,802.7,607.1z"/>
	<path id="XMLID_1100_" class="st2" d="M822.1,628.8c0,0,3.8,14.2-17.6,19.3C804.5,648.1,806.4,628.4,822.1,628.8z"/>
	<path id="XMLID_1096_" class="st2" d="M872.7,635.6c0,0-11.1-1.2-8.8-17.7C863.9,617.8,877.3,624.6,872.7,635.6z"/>
	<path id="XMLID_889_" class="st2" d="M819.4,685.6c0,0,1.7,10-12,13C807.4,698.6,806.4,685.2,819.4,685.6z"/>
	<path id="XMLID_888_" class="st2" d="M816,622.6c0,0-8-8,4.5-19.7C820.5,602.9,826.7,616.9,816,622.6z"/>
</g>
<path id="XMLID_1338_" class="st0" d="M1034.7,806c0,0,35.3-31.4,82.7-36.1c47.3-4.7,61.8-1.8,91.9,4.1c44,8.7,73.4,32,73.4,32
	H1034.7z"/>
<g id="XMLID_1183_">
	<path id="XMLID_1187_" class="st1" d="M1131.8,540.7c0,0-1.7-20.6-6-26.8l1.8-0.7c0,0,7.7,14.3,8.8,24.7
		C1137.6,548.3,1131.8,540.7,1131.8,540.7z"/>
	<path id="XMLID_1186_" class="st2" d="M1127.9,516.2c0,0-18.5-11.3-0.7-38.7C1127.2,477.5,1145.4,500.7,1127.9,516.2z"/>
	<g id="XMLID_1179_">
		<path id="XMLID_1180_" class="st1" d="M1138.9,776.6c0,0,26-129.6-8.3-237.7l7.4-3.2c0,0,45.5,90.5,37.5,240.9
			C1175.4,782.9,1138.9,782.9,1138.9,776.6z"/>
	</g>
	<path id="XMLID_1178_" class="st1" d="M1154.6,695.8c0,0-19.2-24.9-42.8-29.8c-1.5-0.3-3,0.3-3.9,1.5l0,0c0,0,11.6,3.1,24.6,15.9
		c13,12.8,16.5,25.5,16.5,25.5L1154.6,695.8z"/>
	<path id="XMLID_1177_" class="st1" d="M1167,721.4c0,0,15.9-29.8,40-39.2c1.5-0.6,3.2-0.2,4.4,0.9l0,0c0,0-11.7,5.4-23.2,21.3
		c-11.4,15.8-12.9,30-12.9,30L1167,721.4z"/>
	<path id="XMLID_1176_" class="st1" d="M1159.7,638.1c0,0,52.6-41.3,66.4-73.5l4.1,1.9c0,0-9.7,39.9-63,88.2
		C1164.6,657,1157.1,640.5,1159.7,638.1z"/>
	<path id="XMLID_1164_" class="st2" d="M1131.3,540.9c0,0-5.6-61.6,78.5-67.5C1209.8,473.4,1190.4,552.6,1131.3,540.9z"/>
	<path id="XMLID_1162_" class="st2" d="M1136.7,540.7c0,0-33.9,17.2-56.4-29.4C1080.3,511.3,1129.9,504.3,1136.7,540.7z"/>
	<path id="XMLID_1161_" class="st2" d="M1226,564.9c0,0,20.3-35.3,72.4-3.1C1298.3,561.8,1255.8,596.8,1226,564.9z"/>
	<path id="XMLID_1160_" class="st2" d="M1197.7,616.5c0,0,24.3-22.2,56.6,15.3C1254.3,631.8,1212.9,648.4,1197.7,616.5z"/>
	<path id="XMLID_1159_" class="st2" d="M1112.5,666.2c0,0-9.4,18.1-36.1,3.2C1076.4,669.4,1096.8,650.9,1112.5,666.2z"/>
	<path id="XMLID_1158_" class="st2" d="M1229.1,567.1c0,0-19.9-4.9-11.7-34.6C1217.4,532.5,1240.3,548.2,1229.1,567.1z"/>
	<path id="XMLID_1157_" class="st2" d="M1112,666.8c0,0-9.8-3.9-3.5-18.5C1108.5,648.4,1119.1,658,1112,666.8z"/>
	<path id="XMLID_1156_" class="st1" d="M1158,621c0,0-36.8-17.8-49.2-35.2l-2.2,1.6c0,0,7.9,20.5,46,42.4
		C1154.4,630.9,1159.9,622.1,1158,621z"/>
	<path id="XMLID_1152_" class="st2" d="M1109.1,585.8c0,0-22.4-10.9-37.7,23.3C1071.5,609.1,1105,612.2,1109.1,585.8z"/>
	<path id="XMLID_1146_" class="st2" d="M1108.9,588.3c0,0-14.9-9-0.7-30.9C1108.3,557.4,1122.8,575.9,1108.9,588.3z"/>
	<path id="XMLID_1142_" class="st2" d="M1130.5,612.4c0,0,4.2,15.7-19.5,21.3C1110.9,633.7,1113,611.8,1130.5,612.4z"/>
	<path id="XMLID_1138_" class="st2" d="M1186.4,619.8c0,0-12.3-1.3-9.7-19.6C1176.7,600.2,1191.6,607.6,1186.4,619.8z"/>
	<path id="XMLID_1272_" class="st2" d="M1151.4,586.8c0,0-6.4-17.6,20.4-26.3C1171.8,560.4,1171.5,585.7,1151.4,586.8z"/>
	<path id="XMLID_1303_" class="st2" d="M1147.7,730.7c0,0-18.1,4.8-24.5-22.6C1123.2,708.1,1148.4,710.6,1147.7,730.7z"/>
	<path id="XMLID_1181_" class="st2" d="M1208.2,682.8c0,0,9.2-9.6,23.1,4.7C1231.3,687.5,1215.2,695.2,1208.2,682.8z"/>
	<path id="XMLID_1124_" class="st2" d="M1208.5,683.1c0,0-6.4-7.4,5-16.7C1213.5,666.4,1218.1,678.9,1208.5,683.1z"/>
	<path id="XMLID_1182_" class="st2" d="M1189.4,696.2c0,0-8.3-5.2-0.1-17.5C1189.2,678.7,1197.3,689.2,1189.4,696.2z"/>
	<path id="XMLID_1137_" class="st2" d="M1127.5,675.3c0,0,1.9,11-13.3,14.4C1114.2,689.7,1113,674.8,1127.5,675.3z"/>
	<path id="XMLID_1135_" class="st2" d="M1123.6,605.4c0,0-8.8-8.9,5-21.8C1128.6,583.6,1135.6,599.1,1123.6,605.4z"/>
	<path id="XMLID_1185_" class="st2" d="M1133.4,678.6c0,0-7.7-7.8,4.3-19.1C1137.8,659.5,1143.9,673.1,1133.4,678.6z"/>
	<path id="XMLID_850_" class="st1" d="M1213.3,594.5c0,0,19.3-6,34.7,0l-1,1.3c0,0-16.8-3.7-35.2,6L1213.3,594.5z"/>
	<path id="XMLID_1184_" class="st2" d="M1246.7,594.3c0,0,10.1-1.2,11.5,14C1258.1,608.3,1244.8,605,1246.7,594.3z"/>
</g>
</svg>
